<svg xmlns="http://www.w3.org/2000/svg" fill="none" viewBox="0 0 1430 500"><path d="M36 72h177l24 5 11 3 10 4 14 7 12 7 10 6 8 8 15 14 10 14 6 10 7 14 6 14 5 19 2 8 2 20v17l-2 14-3 13-6 17L340 300l-9 15-7 10-10 12-6 6-6 7-12 10-12 7-13 7-12 5-9 3-16 4-12 1-13 1h-48l-10-3-10-6-6-8-4-7-2-7V340l4-10 5-8 10-8 6-3 10-2h50l11-3 17-6 10-6 9-8 9-12 6-13 5-13 1-9v-20l-2-13-4-10-9-13-8-10-9-7-11-7-15-5-8-2H5v-46l3-10 6-10 3-4 8-5 11-5Z" fill="#3182CE"/><path d="M68 192h127l13 6 7 6 4 5 3 4 2 7v16l-2 7-5 8-4 4-6 5-10 4-5 1h-84l-10 4-4 3-6 5-6 10-3 7v175l-2 7-5 10-5 6-9 5-10 3H6V257l2-10 5-14 5-10 10-10 8-8 14-7 13-4 6-2Z" fill="#86ACFE"/><path d="M460 343c-10 0-22-2-31-6-10-5-17-11-22-20-5-7-8-16-8-26 0-12 3-21 10-28 6-8 16-13 30-16 15-3 33-5 57-5h12v-7c0-10-2-20-7-24-5-5-14-7-25-7a106 106 0 00-45 10c-5 3-10 3-14 1-3-2-6-5-7-10a20 20 0 01 0-12c3-4 6-7 11-10a153 153 0 01 56-11c24 0 42 6 54 17 11 10 17 28 17 51v81c0 15-6 22-20 22-13 0-20-7-20-22v-7c-3 9-10 16-17 22a60 60 0 01-30 7Zm10-29c10 0 20-3 27-11a40 40 0 00 11-29v-7h-11c-22 0-36 1-45 5-8 3-12 9-12 17 0 8 3 14 8 18a30 30 0 00 22 7Zm183 29c-12 0-20-6-24-18l-50-124c-2-8-2-15 1-20 3-6 10-8 18-8 5 0 9 0 12 3 3 3 6 7 8 13l37 102 38-104c3-10 10-14 20-14 9 0 15 4 18 14L770 292l38-104c2-6 5-10 8-12l12-3c8 0 13 3 16 8 2 6 2 12 0 20l-50 124c-4 12-12 18-24 18s-20-6-24-18l-34-91-34 90c-4 13-12 19-24 19Zm274 0c-12 0-22-2-32-6-10-5-16-11-22-20-5-7-7-16-7-26a40 40 0 01 9-28c6-8 16-13 30-16 15-3 34-5 58-5h11v-7c0-10-2-20-7-24-5-5-13-7-25-7a106 106 0 00-45 10c-5 3-10 3-13 1-4-2-6-5-8-10a20 20 0 01 0-12c3-4 6-7 11-10a153 153 0 01 56-11c24 0 42 6 54 17 12 10 17 28 17 51v81c0 15-6 22-20 22-12 0-20-7-20-22v-7c-3 9-9 16-17 22-9 5-18 7-30 7Zm9-29c10 0 20-3 27-11a40 40 0 00 11-29v-7h-11c-21 0-36 1-44 5-8 3-12 9-12 17 0 8 2 14 7 18a30 30 0 00 22 7Zm142 29c-14 0-20-7-20-22V194c0-14 6-21 20-21 13 0 20 7 20 20v8c6-10 13-17 23-22 10-5 20-7 32-7 39 0 58 23 58 68v80c0 15-7 22-20 22-15 0-22-7-22-22v-80c0-12-2-21-7-27-5-6-12-10-22-10-13 0-23 5-30 13-7 7-10 18-10 30V320c0 15-8 22-22 22Zm230 0c-12 0-22-2-32-6a60 60 0 01-22-20c-5-7-7-16-7-26 0-12 3-21 10-28 5-8 16-13 30-16 14-3 33-5 57-5h11v-7c0-10-2-20-7-24-5-5-13-7-25-7a106 106 0 00-45 10c-5 3-10 3-13 1-4-2-6-5-8-10a20 20 0 01 1-12c2-4 5-7 10-10a153 153 0 01 56-11c24 0 42 6 54 17 12 10 17 28 17 51v81c0 15-6 22-20 22-12 0-19-7-19-22v-7c-4 9-10 16-18 22-8 5-18 7-30 7Zm9-29c11 0 20-3 27-11a40 40 0 00 11-29v-7h-11c-21 0-36 1-44 5-8 3-12 9-12 17 0 8 2 14 7 18a30 30 0 00 22 7Z" fill="#3182CE"/></svg>
