<svg xmlns="http://www.w3.org/2000/svg" fill="none" viewBox="0 0 350 430"><path d="M31 0h177l23 4 12 4 10 4 14 7 12 6 9 7 10 8L310 54l10 13 7 11 7 14 6 14 5 19 2 8 1 20V170l-1 14-3 13-6 17-6 13-8 15-8 11-9 11-6 7-7 7-11 10-12 7-13 6-12 5-9 4-16 3-12 2h-61l-10-3-10-6-6-7-4-8-2-6v-17l3-10 6-9 10-7 6-4 10-1 50-1 10-2 18-7 10-6 8-7 10-12 6-13 5-13 1-10v-20l-2-12-5-10-8-14-8-10-9-7-12-6-14-5-8-2H0V33l3-10 5-10 4-4 8-6L31 0Z" fill="#3182CE"/><path d="M63 120H190l14 5 7 6 4 5 2 5 3 6v16l-3 8-4 7-4 5-6 5-10 4h-89l-10 4-5 3-6 6-5 9-3 7v175l-2 7-6 10-5 6-8 5-10 4H0V184l2-10 5-13 5-10 10-10 8-8 14-8 12-4 7-1Z" fill="#86ACFE"/></svg>
