<svg width="24" height="24" viewBox="0 0 24 24" fill="none" xmlns="http://www.w3.org/2000/svg">
    <path fill-rule="evenodd" clip-rule="evenodd"
        d="M5 9C5 5.134 8.1341 2 11.9998 2C15.8658 2 18.9998 5.134 18.9998 9C18.9998 10.1588 18.7178 11.2558 18.2188 12.2188L13.3748 20.9688C13.1708 21.5548 12.6248 21.9998 11.9688 21.9998C11.3128 21.9998 10.7348 21.5548 10.5308 20.9688L6.1876 12.9068C6.16811 12.8777 6.15151 12.8486 6.13481 12.8193C6.12168 12.7962 6.1085 12.7731 6.0938 12.7498C5.4017 11.6648 5 10.383 5 9ZM16.0089 7.61443C16.1071 7.51397 16.1562 7.39199 16.1562 7.24848C16.1562 7.10497 16.1071 6.98298 16.0089 6.88252L15.2933 6.15061C15.195 6.05015 15.0758 5.99993 14.9354 5.99993C14.7951 5.99993 14.6758 6.05015 14.5776 6.15061L11.1257 9.68638L9.57863 8.09878C9.4804 7.99833 9.36113 7.9481 9.22081 7.9481C9.08048 7.9481 8.96121 7.99833 8.86298 8.09878L8.14734 8.83069C8.04911 8.93115 8 9.05314 8 9.19665C8 9.34016 8.04911 9.46215 8.14734 9.5626L10.0522 11.5108L10.7679 12.2427C10.8661 12.3431 10.9854 12.3934 11.1257 12.3934C11.266 12.3934 11.3853 12.3431 11.4835 12.2427L12.1992 11.5108L16.0089 7.61443Z"
        fill="#a86d00" />
    <path fill-rule="evenodd" clip-rule="evenodd"
        d="M5 8.30005C5 4.43405 8.1341 1.30005 11.9998 1.30005C15.8658 1.30005 18.9998 4.43405 18.9998 8.30005C18.9998 9.45885 18.7178 10.5558 18.2188 11.5188L13.3748 20.2688C13.1708 20.8548 12.6248 21.2998 11.9688 21.2998C11.3128 21.2998 10.7348 20.8548 10.5308 20.2688L6.1876 12.2068C6.16811 12.1777 6.15151 12.1486 6.13481 12.1193C6.12168 12.0963 6.1085 12.0732 6.0938 12.0498C5.4017 10.9648 5 9.68305 5 8.30005ZM16.0089 6.91448C16.1071 6.81402 16.1562 6.69204 16.1562 6.54853C16.1562 6.40501 16.1071 6.28303 16.0089 6.18257L15.2933 5.45066C15.195 5.3502 15.0758 5.29997 14.9354 5.29997C14.7951 5.29997 14.6758 5.3502 14.5776 5.45066L11.1257 8.98643L9.57863 7.39883C9.4804 7.29838 9.36113 7.24815 9.22081 7.24815C9.08048 7.24815 8.96121 7.29838 8.86298 7.39883L8.14734 8.13074C8.04911 8.2312 8 8.35319 8 8.4967C8 8.64021 8.04911 8.76219 8.14734 8.86265L10.0522 10.8108L10.7679 11.5427C10.8661 11.6432 10.9854 11.6934 11.1257 11.6934C11.266 11.6934 11.3853 11.6432 11.4835 11.5427L12.1992 10.8108L16.0089 6.91448Z"
        fill="#FAA300" />
</svg>