<svg width="24" height="24" viewBox="0 0 24 24" fill="none" xmlns="http://www.w3.org/2000/svg">
    <path fill-rule="evenodd" clip-rule="evenodd"
        d="M5 9C5 5.134 8.1341 2 11.9998 2C15.8658 2 18.9998 5.134 18.9998 9C18.9998 10.1588 18.7178 11.2558 18.2188 12.2188L13.3748 20.9688C13.1708 21.5548 12.6248 21.9998 11.9688 21.9998C11.3128 21.9998 10.7348 21.5548 10.5308 20.9688L6.1876 12.9068C6.16811 12.8777 6.15151 12.8486 6.13481 12.8193C6.12168 12.7962 6.1085 12.7731 6.0938 12.7498C5.4017 11.6648 5 10.383 5 9ZM8.00157 13H10.6677V9.29826H13.3339V13H16V6.64835L12.0008 4L8 6.64835L8.00157 13Z"
        fill="#005C58" />
    <path fill-rule="evenodd" clip-rule="evenodd"
        d="M5 8.30005C5 4.43405 8.1341 1.30005 11.9998 1.30005C15.8658 1.30005 18.9998 4.43405 18.9998 8.30005C18.9998 9.45885 18.7178 10.5558 18.2188 11.5188L13.3748 20.2688C13.1708 20.8548 12.6248 21.2998 11.9688 21.2998C11.3128 21.2998 10.7348 20.8548 10.5308 20.2688L6.1876 12.2068C6.16811 12.1777 6.15151 12.1486 6.13481 12.1193C6.12168 12.0962 6.1085 12.0731 6.0938 12.0498C5.4017 10.9648 5 9.68305 5 8.30005ZM8.00157 12.3H10.6677V8.59831H13.3339V12.3H16V5.9484L12.0008 3.30005L8 5.9484L8.00157 12.3Z"
        fill="#319795" />
</svg>