<svg width="36" height="36" viewBox="0 0 36 36" fill="none" xmlns="http://www.w3.org/2000/svg">
<path d="M13.5 4.5H6C5.17157 4.5 4.5 5.17157 4.5 6V13.5C4.5 14.3285 5.17157 15 6 15H13.5C14.3285 15 15 14.3285 15 13.5V6C15 5.17157 14.3285 4.5 13.5 4.5Z" fill="#57C5B6"/>
<path fill-rule="evenodd" clip-rule="evenodd" d="M3.47144 6.00001C3.47144 4.60352 4.60352 3.47144 6.00001 3.47144H13.5C14.8965 3.47144 16.0286 4.60353 16.0286 6.00001V13.5C16.0286 14.8965 14.8965 16.0286 13.5 16.0286H6.00001C4.60353 16.0286 3.47144 14.8965 3.47144 13.5V6.00001ZM6.00001 5.52858C5.73964 5.52858 5.52858 5.73964 5.52858 6.00001V13.5C5.52858 13.7604 5.73963 13.9714 6.00001 13.9714H13.5C13.7604 13.9714 13.9714 13.7604 13.9714 13.5V6.00001C13.9714 5.73963 13.7604 5.52858 13.5 5.52858H6.00001Z" fill="#444444"/>
<path d="M13.5 21H6C5.17157 21 4.5 21.6716 4.5 22.5V30C4.5 30.8285 5.17157 31.5 6 31.5H13.5C14.3285 31.5 15 30.8285 15 30V22.5C15 21.6716 14.3285 21 13.5 21Z" fill="#57C5B6"/>
<path fill-rule="evenodd" clip-rule="evenodd" d="M3.47144 22.5C3.47144 21.1035 4.60353 19.9714 6.00001 19.9714H13.5C14.8965 19.9714 16.0286 21.1035 16.0286 22.5V30C16.0286 31.3965 14.8965 32.5286 13.5 32.5286H6.00001C4.60353 32.5286 3.47144 31.3965 3.47144 30V22.5ZM6.00001 22.0286C5.73963 22.0286 5.52858 22.2396 5.52858 22.5V30C5.52858 30.2604 5.73963 30.4714 6.00001 30.4714H13.5C13.7604 30.4714 13.9714 30.2604 13.9714 30V22.5C13.9714 22.2396 13.7604 22.0286 13.5 22.0286H6.00001Z" fill="#444444"/>
<path d="M26.25 15C29.1495 15 31.5 12.6495 31.5 9.75C31.5 6.85051 29.1495 4.5 26.25 4.5C23.3505 4.5 21 6.85051 21 9.75C21 12.6495 23.3505 15 26.25 15Z" fill="#87CEEB"/>
<path fill-rule="evenodd" clip-rule="evenodd" d="M19.9714 9.75001C19.9714 6.28245 22.7824 3.47144 26.25 3.47144C29.7176 3.47144 32.5286 6.28245 32.5286 9.75001C32.5286 13.2176 29.7176 16.0286 26.25 16.0286C22.7824 16.0286 19.9714 13.2176 19.9714 9.75001ZM26.25 5.52858C23.9186 5.52858 22.0286 7.41858 22.0286 9.75001C22.0286 12.0814 23.9186 13.9714 26.25 13.9714C28.5814 13.9714 30.4714 12.0814 30.4714 9.75001C30.4714 7.41858 28.5814 5.52858 26.25 5.52858Z" fill="#444444"/>
<path d="M30 21H22.5C21.6716 21 21 21.6716 21 22.5V30C21 30.8285 21.6716 31.5 22.5 31.5H30C30.8285 31.5 31.5 30.8285 31.5 30V22.5C31.5 21.6716 30.8285 21 30 21Z" fill="#57C5B6"/>
<path fill-rule="evenodd" clip-rule="evenodd" d="M19.9714 22.5C19.9714 21.1035 21.1035 19.9714 22.5 19.9714H30C31.3965 19.9714 32.5286 21.1035 32.5286 22.5V30C32.5286 31.3965 31.3965 32.5286 30 32.5286H22.5C21.1035 32.5286 19.9714 31.3965 19.9714 30V22.5ZM22.5 22.0286C22.2396 22.0286 22.0286 22.2396 22.0286 22.5V30C22.0286 30.2604 22.2396 30.4714 22.5 30.4714H30C30.2604 30.4714 30.4714 30.2604 30.4714 30V22.5C30.4714 22.2396 30.2604 22.0286 30 22.0286H22.5Z" fill="#444444"/>
</svg>
