<svg width="143" height="50" viewBox="0 0 143 50" fill="none" xmlns="http://www.w3.org/2000/svg">
<path d="M3.63303 7.23904H12.4714H21.3098L23.6667 7.65992L24.8452 7.99662L25.8553 8.4175L27.2021 9.0909L28.3805 9.7643L29.3064 10.4377L30.2324 11.1953L31.6633 12.6262L32.6734 13.9731L33.3468 15.0673L34.0202 16.4141L34.6095 17.8451L35.1145 19.697L35.2829 20.5387L35.4512 22.5589V24.2424L35.2829 25.5892L35.0303 26.936L34.4411 28.6195L33.8519 29.9663L33.0101 31.4815L32.2526 32.5757L31.3266 33.67L30.7374 34.3434L30.064 35.0168L28.8856 35.9427L27.7071 36.7003L26.4445 37.3737L25.1819 37.8788L24.3401 38.2155L22.7408 38.5522L21.4782 38.7205L20.2155 38.8047H15.4175L14.3233 38.468L13.4815 37.8788L12.8081 37.1212L12.3872 36.3636L12.2189 35.6902V34.0067L12.5556 33.0808L13.1448 32.1549L14.0707 31.3973L14.7441 31.0606L15.6701 30.8922L20.7206 30.8081L21.8149 30.6397L23.4984 29.9663L24.4243 29.3771L25.3502 28.6195L26.2761 27.4411L26.9495 26.0943L27.3704 24.8316L27.5388 23.9057V21.8013L27.2862 20.6229L26.8654 19.6128L26.0236 18.266L25.1819 17.2559L24.3401 16.5825L23.1617 15.9091L21.7307 15.404L20.8889 15.2357L12.4714 15.2009L0.518555 15.1515V14.7306V14.2256V13.6364V12.7946V12.2895V11.6161V10.606L0.77108 9.59595L1.36031 8.67002L1.69701 8.24915L2.53876 7.65992L3.63303 7.23904Z" fill="#3182CE"/>
<path d="M6.83169 19.1919H19.4579L20.8048 19.7811L21.4782 20.3703L21.899 20.8754L22.1516 21.2963L22.4041 21.9697V23.569L22.1516 24.3266L21.7307 25.0842L21.3098 25.505L20.7206 26.0101L19.7105 26.431L19.2054 26.5151H10.7879L9.86199 26.8518L9.35694 27.1885L8.76771 27.6936L8.17849 28.6195L7.92596 29.3771L7.84179 46.8855L7.67344 47.5589L7.16839 48.569L6.66334 49.1582L5.82159 49.6633L4.89566 50H0.518555V49.5791V48.9057V48.0639V47.3064V46.8855V25.6734L0.686905 24.6633L1.19196 23.3165L1.69701 22.3905L2.62293 21.2963L3.54886 20.5387L4.89566 19.7811L6.15829 19.3602L6.83169 19.1919Z" fill="#86ACFE"/>
<path d="M46.091 34.3367C44.9013 34.3367 43.8351 34.1122 42.8923 33.6633C41.972 33.1919 41.2425 32.5634 40.7038 31.7778C40.1875 30.9921 39.9294 30.1055 39.9294 29.1178C39.9294 27.9057 40.2436 26.9517 40.8721 26.2559C41.5006 25.5376 42.522 25.0213 43.9361 24.7071C45.3503 24.3928 47.247 24.2357 49.6263 24.2357H50.8048V23.5286C50.8048 22.4063 50.5579 21.5982 50.0641 21.1044C49.5702 20.6105 48.7397 20.3636 47.5725 20.3636C46.9215 20.3636 46.2145 20.4422 45.4513 20.5993C44.7105 20.7565 43.9249 21.0258 43.0944 21.4074C42.5556 21.6543 42.1067 21.688 41.7476 21.5084C41.3884 21.3064 41.1415 21.0034 41.0068 20.5993C40.8946 20.1728 40.917 19.7464 41.0742 19.3199C41.2537 18.8934 41.6017 18.5791 42.1179 18.3771C43.1505 17.9506 44.1381 17.6476 45.0809 17.468C46.0461 17.2884 46.9215 17.1987 47.7072 17.1987C50.109 17.1987 51.8935 17.7598 53.0607 18.8822C54.2279 19.982 54.8115 21.6992 54.8115 24.0337V32.1145C54.8115 33.5511 54.1606 34.2694 52.8587 34.2694C51.5343 34.2694 50.8721 33.5511 50.8721 32.1145V31.3737C50.4905 32.2941 49.8845 33.0236 49.054 33.5623C48.2234 34.0786 47.2358 34.3367 46.091 34.3367ZM46.9664 31.4411C48.0663 31.4411 48.9754 31.0595 49.6937 30.2963C50.4344 29.5331 50.8048 28.5679 50.8048 27.4007V26.6599H49.66C47.55 26.6599 46.0798 26.8283 45.2492 27.165C44.4412 27.4792 44.0371 28.0629 44.0371 28.9158C44.0371 29.6566 44.2953 30.2626 44.8115 30.734C45.3278 31.2054 46.0461 31.4411 46.9664 31.4411ZM65.2826 34.2694C64.1154 34.2694 63.3073 33.6857 62.8584 32.5185L57.9763 20.0606C57.6844 19.275 57.6957 18.6128 58.0099 18.0741C58.3466 17.5354 58.9302 17.266 59.7608 17.266C60.2546 17.266 60.6586 17.3895 60.9729 17.6364C61.2871 17.8608 61.5565 18.2985 61.781 18.9495L65.4847 29.0842L69.2894 18.6801C69.6485 17.7374 70.2883 17.266 71.2086 17.266C72.1513 17.266 72.7911 17.7374 73.1278 18.6801L76.9325 29.1852L80.6699 18.8485C80.8943 18.2424 81.1749 17.8272 81.5116 17.6027C81.8708 17.3782 82.2636 17.266 82.6901 17.266C83.4981 17.266 84.0256 17.5578 84.2725 18.1414C84.5195 18.7026 84.497 19.3423 84.2052 20.0606L79.3567 32.5185C78.8853 33.6857 78.0773 34.2694 76.9325 34.2694C75.7428 34.2694 74.9347 33.6857 74.5082 32.5185L71.0739 23.3939L67.7069 32.4848C67.2804 33.6745 66.4723 34.2694 65.2826 34.2694ZM92.7161 34.3367C91.5264 34.3367 90.4602 34.1122 89.5174 33.6633C88.5971 33.1919 87.8676 32.5634 87.3289 31.7778C86.8126 30.9921 86.5545 30.1055 86.5545 29.1178C86.5545 27.9057 86.8687 26.9517 87.4972 26.2559C88.1258 25.5376 89.1471 25.0213 90.5612 24.7071C91.9754 24.3928 93.8721 24.2357 96.2515 24.2357H97.4299V23.5286C97.4299 22.4063 97.183 21.5982 96.6892 21.1044C96.1953 20.6105 95.3648 20.3636 94.1976 20.3636C93.5466 20.3636 92.8396 20.4422 92.0764 20.5993C91.3356 20.7565 90.55 21.0258 89.7195 21.4074C89.1807 21.6543 88.7318 21.688 88.3727 21.5084C88.0135 21.3064 87.7666 21.0034 87.6319 20.5993C87.5197 20.1728 87.5421 19.7464 87.6993 19.3199C87.8788 18.8934 88.2268 18.5791 88.743 18.3771C89.7756 17.9506 90.7632 17.6476 91.706 17.468C92.6712 17.2884 93.5466 17.1987 94.3323 17.1987C96.7341 17.1987 98.5186 17.7598 99.6858 18.8822C100.853 19.982 101.437 21.6992 101.437 24.0337V32.1145C101.437 33.5511 100.786 34.2694 99.4838 34.2694C98.1594 34.2694 97.4972 33.5511 97.4972 32.1145V31.3737C97.1156 32.2941 96.5096 33.0236 95.6791 33.5623C94.8485 34.0786 93.8609 34.3367 92.7161 34.3367ZM93.5915 31.4411C94.6914 31.4411 95.6005 31.0595 96.3188 30.2963C97.0595 29.5331 97.4299 28.5679 97.4299 27.4007V26.6599H96.2851C94.1751 26.6599 92.7049 26.8283 91.8743 27.165C91.0663 27.4792 90.6622 28.0629 90.6622 28.9158C90.6622 29.6566 90.9204 30.2626 91.4366 30.734C91.9529 31.2054 92.6712 31.4411 93.5915 31.4411ZM107.796 34.2694C106.404 34.2694 105.709 33.5511 105.709 32.1145V19.3872C105.709 17.9731 106.393 17.266 107.762 17.266C109.132 17.266 109.816 17.9731 109.816 19.3872V20.0943C110.377 19.1515 111.129 18.4332 112.072 17.9394C113.037 17.4456 114.115 17.1987 115.304 17.1987C119.188 17.1987 121.129 19.4545 121.129 23.9663V32.1145C121.129 33.5511 120.434 34.2694 119.042 34.2694C117.628 34.2694 116.921 33.5511 116.921 32.1145V24.1683C116.921 22.8889 116.674 21.9574 116.18 21.3737C115.709 20.7901 114.968 20.4983 113.958 20.4983C112.723 20.4983 111.735 20.8911 110.995 21.6768C110.276 22.44 109.917 23.4613 109.917 24.7407V32.1145C109.917 33.5511 109.21 34.2694 107.796 34.2694ZM130.825 34.3367C129.635 34.3367 128.569 34.1122 127.626 33.6633C126.706 33.1919 125.977 32.5634 125.438 31.7778C124.922 30.9921 124.663 30.1055 124.663 29.1178C124.663 27.9057 124.978 26.9517 125.606 26.2559C126.235 25.5376 127.256 25.0213 128.67 24.7071C130.084 24.3928 131.981 24.2357 134.36 24.2357H135.539V23.5286C135.539 22.4063 135.292 21.5982 134.798 21.1044C134.304 20.6105 133.474 20.3636 132.307 20.3636C131.656 20.3636 130.949 20.4422 130.185 20.5993C129.445 20.7565 128.659 21.0258 127.828 21.4074C127.29 21.6543 126.841 21.688 126.482 21.5084C126.122 21.3064 125.876 21.0034 125.741 20.5993C125.629 20.1728 125.651 19.7464 125.808 19.3199C125.988 18.8934 126.336 18.5791 126.852 18.3771C127.885 17.9506 128.872 17.6476 129.815 17.468C130.78 17.2884 131.656 17.1987 132.441 17.1987C134.843 17.1987 136.628 17.7598 137.795 18.8822C138.962 19.982 139.546 21.6992 139.546 24.0337V32.1145C139.546 33.5511 138.895 34.2694 137.593 34.2694C136.268 34.2694 135.606 33.5511 135.606 32.1145V31.3737C135.225 32.2941 134.619 33.0236 133.788 33.5623C132.957 34.0786 131.97 34.3367 130.825 34.3367ZM131.7 31.4411C132.8 31.4411 133.709 31.0595 134.428 30.2963C135.168 29.5331 135.539 28.5679 135.539 27.4007V26.6599H134.394C132.284 26.6599 130.814 26.8283 129.983 27.165C129.175 27.4792 128.771 28.0629 128.771 28.9158C128.771 29.6566 129.029 30.2626 129.546 30.734C130.062 31.2054 130.78 31.4411 131.7 31.4411Z" fill="#3182CE"/>
</svg>
