<svg width="35" height="43" viewBox="0 0 35 43" fill="none" xmlns="http://www.w3.org/2000/svg">
<path d="M3.11448 0H11.9529H20.7912L23.1482 0.420875L24.3266 0.757576L25.3367 1.17845L26.6835 1.85185L27.862 2.52525L28.7879 3.19865L29.7138 3.95623L31.1448 5.38721L32.1549 6.73401L32.8283 7.82828L33.5017 9.17508L34.0909 10.6061L34.596 12.4579L34.7643 13.2997L34.9327 15.3199V17.0034L34.7643 18.3502L34.5118 19.697L33.9226 21.3805L33.3333 22.7273L32.4916 24.2424L31.734 25.3367L30.8081 26.431L30.2189 27.1044L29.5455 27.7778L28.367 28.7037L27.1886 29.4613L25.9259 30.1347L24.6633 30.6397L23.8216 30.9764L22.2222 31.3131L20.9596 31.4815L19.697 31.5657H14.899L13.8047 31.229L12.963 30.6397L12.2896 29.8822L11.8687 29.1246L11.7003 28.4512V26.7677L12.037 25.8418L12.6263 24.9158L13.5522 24.1583L14.2256 23.8215L15.1515 23.6532L20.202 23.569L21.2963 23.4007L22.9798 22.7273L23.9057 22.138L24.8317 21.3805L25.7576 20.202L26.431 18.8552L26.8519 17.5926L27.0202 16.6667V14.5623L26.7677 13.3838L26.3468 12.3737L25.5051 11.0269L24.6633 10.0168L23.8216 9.34343L22.6431 8.67003L21.2121 8.16498L20.3704 7.99663L11.9529 7.96185L0 7.91246V7.49158V6.98653V6.39731V5.55556V5.05051V4.3771V3.367L0.252525 2.3569L0.841751 1.43098L1.17845 1.0101L2.0202 0.420875L3.11448 0Z" fill="#3182CE"/>
<path d="M6.31313 11.9529H18.9394L20.2862 12.5421L20.9596 13.1313L21.3805 13.6364L21.633 14.0572L21.8855 14.7306V16.33L21.633 17.0875L21.2121 17.8451L20.7912 18.266L20.202 18.771L19.1919 19.1919L18.6869 19.2761H10.2694L9.34343 19.6128L8.83838 19.9495L8.24916 20.4545L7.65993 21.3805L7.40741 22.138L7.32323 39.6465L7.15488 40.3199L6.64983 41.33L6.14478 41.9192L5.30303 42.4242L4.3771 42.7609H0V42.3401V41.6667V40.8249V40.0673V39.6465V18.4343L0.16835 17.4242L0.673401 16.0774L1.17845 15.1515L2.10438 14.0572L3.0303 13.2997L4.3771 12.5421L5.63973 12.1212L6.31313 11.9529Z" fill="#86ACFE"/>
</svg>
